<svg width="355" height="240" viewBox="0 0 355 240" fill="none" xmlns="http://www.w3.org/2000/svg">
<rect data-motion-id="1:4181:@root/background[0]" width="354.667" height="240" rx="16" fill="white"/>
<rect data-motion-id="1:4181:@root/background_2[0]" x="36" y="47" width="113" height="82" rx="12" fill="url(#paint0_radial_motion_shared)"/>
<path data-motion-id="1:4181:@root/vector-1[0]" d="M196 59C196 52.3726 201.373 47 208 47H297C303.627 47 309 52.3726 309 59V117C309 123.627 303.627 129 297 129H208C201.373 129 196 123.627 196 117V59Z" fill="url(#paint1_radial_motion_shared)"/>
<g data-motion-id="1:4181:@root" opacity="0.9" filter="url(#filter0_i_motion_shared)">
<path data-motion-id="1:4181:@root/container[0]/hugeiconsrefresh-03-stroke-rounded-1[0]/vector-stroke[0]" d="M285 89C285 106.673 270.673 121 253 121C235.327 121 221 106.673 221 89C221 71.3269 235.327 57 253 57C270.673 57 285 71.3269 285 89ZM237 89C237 97.8366 244.163 105 253 105C261.837 105 269 97.8366 269 89C269 80.1634 261.837 73 253 73C244.163 73 237 80.1634 237 89Z" fill="url(#paint2_radial_motion_shared)"/>
</g>
<mask id="mask0_motion_shared" style="mask-type:alpha" maskUnits="userSpaceOnUse" x="225" y="57" width="28" height="24">
<path data-motion-id="1:4181:@root/container[0]/hugeiconsrefresh-03-stroke-rounded-1[0]/vector-stroke_2[0]" d="M253 57C247.532 57 242.154 58.4014 237.381 61.0705C232.608 63.7395 228.599 67.5872 225.736 72.2463L239.368 80.6232C240.8 78.2936 242.804 76.3698 245.191 75.0352C247.577 73.7007 250.266 73 253 73V57Z" fill="url(#paint3_radial_motion_shared)"/>
</mask>
<g data-motion-id="1:4181:@root/piechart[0]" mask="url(#mask0_motion_shared)">
<g data-motion-id="1:4181:@root/piechart[0]/mask-group[0]" filter="url(#filter1_di_motion_shared)">
<path data-motion-id="1:4181:@root/container[0]/hugeiconsrefresh-03-stroke-rounded-1[0]/vector-stroke_3[0]" d="M225.749 72.2262C222.882 76.8832 221.257 82.1971 221.028 87.6608C220.799 93.1245 221.974 98.5557 224.441 103.436L238.721 96.2181C237.487 93.7779 236.9 91.0623 237.014 88.3304C237.128 85.5986 237.941 82.9416 239.374 80.6131L225.749 72.2262Z" fill="url(#paint4_radial_motion_shared)"/>
</g>
</g>
<mask id="mask1_motion_shared" style="mask-type:alpha" maskUnits="userSpaceOnUse" x="221" y="72" width="20" height="38">
<path d="M225.844 72.0728C222.29 77.7744 220.62 84.4499 221.073 91.1532C221.525 97.8565 224.075 104.247 228.362 109.42L240.681 99.2101C238.538 96.6237 237.262 93.4283 237.036 90.0766C236.81 86.725 237.645 83.3872 239.422 80.5364L225.844 72.0728Z" fill="url(#paint5_radial_motion_shared)"/>
</mask>
<g data-motion-id="1:4181:@root/piechart[0]/mask-group_2[0]" mask="url(#mask1_motion_shared)">
<g data-motion-id="1:4181:@root/piechart[0]/mask-group_3[0]" filter="url(#filter2_di_motion_shared)">
<path d="M228.52 109.61C232.848 114.749 238.682 118.396 245.198 120.034C251.714 121.672 258.58 121.218 264.823 118.736L258.912 103.868C255.79 105.109 252.357 105.336 249.099 104.517C245.841 103.698 242.924 101.875 240.76 99.3048L228.52 109.61Z" fill="url(#paint6_radial_motion_shared)"/>
</g>
</g>
<mask id="mask2_motion_shared" style="mask-type:alpha" maskUnits="userSpaceOnUse" x="228" y="89" width="57" height="32">
<path d="M228.194 109.216C232.355 114.321 237.99 118.018 244.329 119.803C250.669 121.587 257.404 121.372 263.617 119.187C269.83 117.002 275.218 112.953 279.044 107.593C282.871 102.233 284.95 95.8226 284.999 89.2368L269 89.1184C268.975 92.4113 267.935 95.6164 266.022 98.2965C264.109 100.977 261.415 103.001 258.309 104.094C255.202 105.186 251.834 105.294 248.665 104.401C245.495 103.509 242.678 101.661 240.597 99.108L228.194 109.216Z" fill="url(#paint7_radial_motion_shared)"/>
</mask>
<g data-motion-id="1:4181:@root/piechart[0]/mask-group_4[0]" mask="url(#mask2_motion_shared)">
<g data-motion-id="1:4181:@root/container[0]" filter="url(#filter3_d_motion_shared)">
<path d="M285 89C285 82.4141 282.968 75.9885 279.181 70.6002C275.394 65.2119 270.037 61.1232 263.84 58.8921C257.644 56.661 250.91 56.3962 244.557 58.1338C238.205 59.8714 232.543 63.5268 228.345 68.6011L240.672 78.8005C242.772 76.2634 245.602 74.4357 248.779 73.5669C251.955 72.6981 255.322 72.8305 258.42 73.9461C261.518 75.0616 264.197 77.1059 266.091 79.8001C267.984 82.4943 269 85.707 269 89H285Z" fill="url(#paint8_radial_motion_shared)"/>
</g>
</g>
<mask id="mask3_motion_shared" style="mask-type:alpha" maskUnits="userSpaceOnUse" x="253" y="57" width="32" height="32">
<path d="M285 89C285 84.7977 284.172 80.6365 282.564 76.7541C280.956 72.8717 278.599 69.3441 275.627 66.3726C272.656 63.4011 269.128 61.044 265.246 59.4359C261.363 57.8277 257.202 57 253 57L253 73C255.101 73 257.182 73.4139 259.123 74.2179C261.064 75.022 262.828 76.2006 264.314 77.6863C265.799 79.172 266.978 80.9359 267.782 82.8771C268.586 84.8183 269 86.8988 269 89H285Z" fill="url(#paint9_radial_motion_shared)"/>
</mask>
<g data-motion-id="1:4181:@root/container[0]/hugeiconsrefresh-03-stroke-rounded-1[0]" mask="url(#mask3_motion_shared)">
<g data-motion-id="1:4181:@root/bar-chart[0]" filter="url(#filter4_di_motion_shared)">
<path d="M285 89C285 84.7977 284.172 80.6365 282.564 76.7541C280.956 72.8717 278.599 69.3441 275.627 66.3726C272.656 63.4011 269.128 61.044 265.246 59.4359C261.363 57.8277 257.202 57 253 57L253 73C255.101 73 257.182 73.4138 259.123 74.2179C261.064 75.022 262.828 76.2006 264.314 77.6863C265.799 79.172 266.978 80.9359 267.782 82.8771C268.586 84.8183 269 86.8988 269 89L285 89Z" fill="url(#paint10_radial_motion_shared)"/>
</g>
</g>
<path d="M93 129C93 129 93 161 93 169.8C93 178.6 95.0059 181 100.021 181C105.036 181 249.463 181 254.478 181C259.493 181 262 176.2 262 169.8C262 163.4 262 129 262 129" stroke="#788EA4" stroke-dasharray="7 7"/>
<rect data-motion-id="1:4181:@root/bar-chart[0]/4th-column[0]/background_3[0]" x="145" y="149" width="64" height="64" rx="32" fill="white"/>
<rect data-motion-id="1:4181:@root/bar-chart[0]/4th-column[0]/active[0]" x="145" y="149" width="64" height="64" rx="32" fill="url(#paint11_radial_motion_shared)"/>
<g data-motion-id="1:4181:@root/bar-chart[0]/4th-column[0]" clip-path="url(#clip0_motion_shared)">
<g data-motion-id="1:4181:@root/bar-chart[0]/3rd-column[0]" filter="url(#filter5_di_motion_shared)">
<path d="M177 191.5C176.607 191.5 176.218 191.478 175.835 191.436C175.012 191.344 174.418 190.604 174.509 189.78C174.6 188.957 175.342 188.363 176.165 188.454C176.439 188.484 176.717 188.5 177 188.5C181.142 188.5 184.5 185.142 184.5 181C184.5 178.645 183.416 176.544 181.714 175.166C181.07 174.645 180.97 173.701 181.491 173.057C182.012 172.413 182.957 172.313 183.601 172.834C185.976 174.757 187.5 177.701 187.5 181C187.5 186.799 182.799 191.5 177 191.5ZM177 173.5C172.858 173.5 169.5 176.858 169.5 181C169.5 183.355 170.584 185.457 172.286 186.834C172.93 187.355 173.03 188.299 172.509 188.943C171.988 189.587 171.043 189.687 170.399 189.166C168.024 187.244 166.5 184.299 166.5 181C166.5 175.201 171.201 170.5 177 170.5C177.393 170.5 177.782 170.522 178.165 170.565C178.988 170.656 179.582 171.396 179.491 172.22C179.4 173.043 178.658 173.637 177.835 173.546C177.561 173.516 177.283 173.5 177 173.5Z" fill="url(#paint12_radial_motion_shared)"/>
</g>
<g data-motion-id="1:4181:@root/bar-chart[0]/2nd-column[0]" filter="url(#filter6_di_motion_shared)">
<path d="M169 190.5H168C167.172 190.5 166.5 189.828 166.5 189C166.5 188.172 167.172 187.5 168 187.5H169C169.75 187.5 170.161 187.496 170.446 187.458C170.452 187.457 170.457 187.453 170.458 187.447C170.458 187.447 170.458 187.447 170.458 187.446C170.496 187.161 170.5 186.75 170.5 186V185C170.5 184.172 171.172 183.5 172 183.5C172.828 183.5 173.5 184.172 173.5 185V186C173.5 186.665 173.503 187.314 173.432 187.846C173.354 188.421 173.166 189.076 172.621 189.621C172.076 190.166 171.421 190.354 170.846 190.432C170.314 190.503 169.665 190.5 169 190.5Z" fill="url(#paint13_radial_motion_shared)"/>
</g>
<g data-motion-id="1:4181:@root/bar-chart[0]/1st-column[0]" filter="url(#filter7_di_motion_shared)">
<path d="M186 174.5H185C184.251 174.5 183.839 174.504 183.554 174.542C183.553 174.542 183.553 174.542 183.553 174.542C183.547 174.543 183.543 174.548 183.542 174.554C183.504 174.839 183.5 175.251 183.5 176V177C183.5 177.828 182.828 178.5 182 178.5C181.172 178.5 180.5 177.828 180.5 177V176C180.5 175.335 180.497 174.686 180.568 174.154C180.646 173.58 180.834 172.924 181.379 172.379C181.924 171.834 182.58 171.646 183.154 171.568C183.686 171.497 184.335 171.5 185 171.5H186C186.828 171.5 187.5 172.172 187.5 173C187.5 173.828 186.828 174.5 186 174.5Z" fill="url(#paint14_radial_motion_shared)"/>
</g>
</g>
<g clip-path="url(#clip1_motion_shared)">
<g opacity="0.9" filter="url(#filter8_i_motion_shared)">
<rect data-motion-id="1:4181:@root/bar-chart[0]/3rd-column[0]/background_4[0]" x="122" y="56" width="17" height="64" rx="6" fill="url(#paint15_radial_motion_shared)" fill-opacity="0.4"/>
</g>
</g>
<g clip-path="url(#clip2_motion_shared)">
<g opacity="0.9" filter="url(#filter9_i_motion_shared)">
<rect data-motion-id="1:4181:@root/bar-chart[0]/3rd-column[0]/active_2[0]" x="97" y="56" width="17" height="64" rx="6" fill="url(#paint16_radial_motion_shared)" fill-opacity="0.4"/>
</g>
</g>
<g clip-path="url(#clip3_motion_shared)">
<g opacity="0.9" filter="url(#filter10_i_motion_shared)">
<rect data-motion-id="1:4181:@root/bar-chart[0]/2nd-column[0]/background_5[0]" x="72" y="56" width="17" height="64" rx="6" fill="url(#paint17_radial_motion_shared)" fill-opacity="0.4"/>
</g>
</g>
<g clip-path="url(#clip4_motion_shared)">
<g opacity="0.9" filter="url(#filter11_i_motion_shared)">
<rect data-motion-id="1:4181:@root/bar-chart[0]/2nd-column[0]/active_3[0]" x="47" y="56" width="17" height="64" rx="6" fill="url(#paint18_radial_motion_shared)"/>
</g>
<g filter="url(#filter12_di_motion_shared)">
<path d="M47 116C47 118.209 48.7909 120 51 120H60C62.2091 120 64 118.209 64 116V103C64 99.6863 61.3137 97 58 97H53C49.6863 97 47 99.6863 47 103V116Z" fill="url(#paint19_radial_motion_shared)"/>
</g>
</g>
<defs>
<filter id="filter0_i_motion_shared" x="221" y="57" width="64" height="65.1102" filterUnits="userSpaceOnUse" color-interpolation-filters="sRGB">
<feFlood flood-opacity="0" result="BackgroundImageFix"/>
<feBlend mode="normal" in="SourceGraphic" in2="BackgroundImageFix" result="shape"/>
<feColorMatrix in="SourceAlpha" type="matrix" values="0 0 0 0 0 0 0 0 0 0 0 0 0 0 0 0 0 0 127 0" result="hardAlpha"/>
<feOffset dy="1.11024"/>
<feGaussianBlur stdDeviation="0.55512"/>
<feComposite in2="hardAlpha" operator="arithmetic" k2="-1" k3="1"/>
<feColorMatrix type="matrix" values="0 0 0 0 1 0 0 0 0 1 0 0 0 0 1 0 0 0 0.09 0"/>
<feBlend mode="normal" in2="shape" result="effect1_innerShadow_motion_shared"/>
</filter>
<filter id="filter1_di_motion_shared" x="215.74" y="72.2263" width="28.8942" height="41.7298" filterUnits="userSpaceOnUse" color-interpolation-filters="sRGB">
<feFlood flood-opacity="0" result="BackgroundImageFix"/>
<feColorMatrix in="SourceAlpha" type="matrix" values="0 0 0 0 0 0 0 0 0 0 0 0 0 0 0 0 0 0 127 0" result="hardAlpha"/>
<feOffset dy="5.25997"/>
<feGaussianBlur stdDeviation="2.62999"/>
<feComposite in2="hardAlpha" operator="out"/>
<feColorMatrix type="matrix" values="0 0 0 0 0.992157 0 0 0 0 0.588235 0 0 0 0 0.180392 0 0 0 0.07 0"/>
<feBlend mode="normal" in2="BackgroundImageFix" result="effect1_dropShadow_motion_shared"/>
<feBlend mode="normal" in="SourceGraphic" in2="effect1_dropShadow_motion_shared" result="shape"/>
<feColorMatrix in="SourceAlpha" type="matrix" values="0 0 0 0 0 0 0 0 0 0 0 0 0 0 0 0 0 0 127 0" result="hardAlpha"/>
<feOffset dx="2"/>
<feGaussianBlur stdDeviation="0.65"/>
<feComposite in2="hardAlpha" operator="arithmetic" k2="-1" k3="1"/>
<feColorMatrix type="matrix" values="0 0 0 0 1 0 0 0 0 1 0 0 0 0 1 0 0 0 0.29 0"/>
<feBlend mode="normal" in2="shape" result="effect2_innerShadow_motion_shared"/>
</filter>
<filter id="filter2_di_motion_shared" x="223.261" y="99.3047" width="46.8227" height="32.2152" filterUnits="userSpaceOnUse" color-interpolation-filters="sRGB">
<feFlood flood-opacity="0" result="BackgroundImageFix"/>
<feColorMatrix in="SourceAlpha" type="matrix" values="0 0 0 0 0 0 0 0 0 0 0 0 0 0 0 0 0 0 127 0" result="hardAlpha"/>
<feOffset dy="5.25997"/>
<feGaussianBlur stdDeviation="2.62999"/>
<feComposite in2="hardAlpha" operator="out"/>
<feColorMatrix type="matrix" values="0 0 0 0 0.992157 0 0 0 0 0.588235 0 0 0 0 0.180392 0 0 0 0.07 0"/>
<feBlend mode="normal" in2="BackgroundImageFix" result="effect1_dropShadow_motion_shared"/>
<feBlend mode="normal" in="SourceGraphic" in2="effect1_dropShadow_motion_shared" result="shape"/>
<feColorMatrix in="SourceAlpha" type="matrix" values="0 0 0 0 0 0 0 0 0 0 0 0 0 0 0 0 0 0 127 0" result="hardAlpha"/>
<feOffset dx="2"/>
<feGaussianBlur stdDeviation="0.657495"/>
<feComposite in2="hardAlpha" operator="arithmetic" k2="-1" k3="1"/>
<feColorMatrix type="matrix" values="0 0 0 0 1 0 0 0 0 1 0 0 0 0 1 0 0 0 0.29 0"/>
<feBlend mode="normal" in2="shape" result="effect2_innerShadow_motion_shared"/>
</filter>
<filter id="filter3_d_motion_shared" x="223.085" y="57" width="67.1752" height="42.5199" filterUnits="userSpaceOnUse" color-interpolation-filters="sRGB">
<feFlood flood-opacity="0" result="BackgroundImageFix"/>
<feColorMatrix in="SourceAlpha" type="matrix" values="0 0 0 0 0 0 0 0 0 0 0 0 0 0 0 0 0 0 127 0" result="hardAlpha"/>
<feOffset dy="5.25997"/>
<feGaussianBlur stdDeviation="2.62999"/>
<feComposite in2="hardAlpha" operator="out"/>
<feColorMatrix type="matrix" values="0 0 0 0 0.992157 0 0 0 0 0.588235 0 0 0 0 0.180392 0 0 0 0.07 0"/>
<feBlend mode="normal" in2="BackgroundImageFix" result="effect1_dropShadow_motion_shared"/>
<feBlend mode="normal" in="SourceGraphic" in2="effect1_dropShadow_motion_shared" result="shape"/>
</filter>
<filter id="filter4_di_motion_shared" x="247.74" y="55.685" width="42.5199" height="43.8349" filterUnits="userSpaceOnUse" color-interpolation-filters="sRGB">
<feFlood flood-opacity="0" result="BackgroundImageFix"/>
<feColorMatrix in="SourceAlpha" type="matrix" values="0 0 0 0 0 0 0 0 0 0 0 0 0 0 0 0 0 0 127 0" result="hardAlpha"/>
<feOffset dy="5.25997"/>
<feGaussianBlur stdDeviation="2.62999"/>
<feComposite in2="hardAlpha" operator="out"/>
<feColorMatrix type="matrix" values="0 0 0 0 0.992157 0 0 0 0 0.588235 0 0 0 0 0.180392 0 0 0 0.07 0"/>
<feBlend mode="normal" in2="BackgroundImageFix" result="effect1_dropShadow_motion_shared"/>
<feBlend mode="normal" in="SourceGraphic" in2="effect1_dropShadow_motion_shared" result="shape"/>
<feColorMatrix in="SourceAlpha" type="matrix" values="0 0 0 0 0 0 0 0 0 0 0 0 0 0 0 0 0 0 127 0" result="hardAlpha"/>
<feOffset dy="-1.31499"/>
<feGaussianBlur stdDeviation="0.657495"/>
<feComposite in2="hardAlpha" operator="arithmetic" k2="-1" k3="1"/>
<feColorMatrix type="matrix" values="0 0 0 0 1 0 0 0 0 1 0 0 0 0 1 0 0 0 0.29 0"/>
<feBlend mode="normal" in2="shape" result="effect2_innerShadow_motion_shared"/>
</filter>
<filter id="filter5_di_motion_shared" x="161.24" y="169.185" width="31.5199" height="32.8349" filterUnits="userSpaceOnUse" color-interpolation-filters="sRGB">
<feFlood flood-opacity="0" result="BackgroundImageFix"/>
<feColorMatrix in="SourceAlpha" type="matrix" values="0 0 0 0 0 0 0 0 0 0 0 0 0 0 0 0 0 0 127 0" result="hardAlpha"/>
<feOffset dy="5.25997"/>
<feGaussianBlur stdDeviation="2.62999"/>
<feComposite in2="hardAlpha" operator="out"/>
<feColorMatrix type="matrix" values="0 0 0 0 0.992157 0 0 0 0 0.588235 0 0 0 0 0.180392 0 0 0 0.07 0"/>
<feBlend mode="normal" in2="BackgroundImageFix" result="effect1_dropShadow_motion_shared"/>
<feBlend mode="normal" in="SourceGraphic" in2="effect1_dropShadow_motion_shared" result="shape"/>
<feColorMatrix in="SourceAlpha" type="matrix" values="0 0 0 0 0 0 0 0 0 0 0 0 0 0 0 0 0 0 127 0" result="hardAlpha"/>
<feOffset dy="-1.31499"/>
<feGaussianBlur stdDeviation="0.657495"/>
<feComposite in2="hardAlpha" operator="arithmetic" k2="-1" k3="1"/>
<feColorMatrix type="matrix" values="0 0 0 0 1 0 0 0 0 1 0 0 0 0 1 0 0 0 0.29 0"/>
<feBlend mode="normal" in2="shape" result="effect2_innerShadow_motion_shared"/>
</filter>
<filter id="filter6_di_motion_shared" x="161.24" y="182.185" width="17.5199" height="18.8349" filterUnits="userSpaceOnUse" color-interpolation-filters="sRGB">
<feFlood flood-opacity="0" result="BackgroundImageFix"/>
<feColorMatrix in="SourceAlpha" type="matrix" values="0 0 0 0 0 0 0 0 0 0 0 0 0 0 0 0 0 0 127 0" result="hardAlpha"/>
<feOffset dy="5.25997"/>
<feGaussianBlur stdDeviation="2.62999"/>
<feComposite in2="hardAlpha" operator="out"/>
<feColorMatrix type="matrix" values="0 0 0 0 0.992157 0 0 0 0 0.588235 0 0 0 0 0.180392 0 0 0 0.07 0"/>
<feBlend mode="normal" in2="BackgroundImageFix" result="effect1_dropShadow_motion_shared"/>
<feBlend mode="normal" in="SourceGraphic" in2="effect1_dropShadow_motion_shared" result="shape"/>
<feColorMatrix in="SourceAlpha" type="matrix" values="0 0 0 0 0 0 0 0 0 0 0 0 0 0 0 0 0 0 127 0" result="hardAlpha"/>
<feOffset dy="-1.31499"/>
<feGaussianBlur stdDeviation="0.657495"/>
<feComposite in2="hardAlpha" operator="arithmetic" k2="-1" k3="1"/>
<feColorMatrix type="matrix" values="0 0 0 0 1 0 0 0 0 1 0 0 0 0 1 0 0 0 0.29 0"/>
<feBlend mode="normal" in2="shape" result="effect2_innerShadow_motion_shared"/>
</filter>
<filter id="filter7_di_motion_shared" x="175.24" y="170.185" width="17.5199" height="18.8349" filterUnits="userSpaceOnUse" color-interpolation-filters="sRGB">
<feFlood flood-opacity="0" result="BackgroundImageFix"/>
<feColorMatrix in="SourceAlpha" type="matrix" values="0 0 0 0 0 0 0 0 0 0 0 0 0 0 0 0 0 0 127 0" result="hardAlpha"/>
<feOffset dy="5.25997"/>
<feGaussianBlur stdDeviation="2.62999"/>
<feComposite in2="hardAlpha" operator="out"/>
<feColorMatrix type="matrix" values="0 0 0 0 0.992157 0 0 0 0 0.588235 0 0 0 0 0.180392 0 0 0 0.07 0"/>
<feBlend mode="normal" in2="BackgroundImageFix" result="effect1_dropShadow_motion_shared"/>
<feBlend mode="normal" in="SourceGraphic" in2="effect1_dropShadow_motion_shared" result="shape"/>
<feColorMatrix in="SourceAlpha" type="matrix" values="0 0 0 0 0 0 0 0 0 0 0 0 0 0 0 0 0 0 127 0" result="hardAlpha"/>
<feOffset dy="-1.31499"/>
<feGaussianBlur stdDeviation="0.657495"/>
<feComposite in2="hardAlpha" operator="arithmetic" k2="-1" k3="1"/>
<feColorMatrix type="matrix" values="0 0 0 0 1 0 0 0 0 1 0 0 0 0 1 0 0 0 0.29 0"/>
<feBlend mode="normal" in2="shape" result="effect2_innerShadow_motion_shared"/>
</filter>
<filter id="filter8_i_motion_shared" x="122" y="56" width="17" height="65.1102" filterUnits="userSpaceOnUse" color-interpolation-filters="sRGB">
<feFlood flood-opacity="0" result="BackgroundImageFix"/>
<feBlend mode="normal" in="SourceGraphic" in2="BackgroundImageFix" result="shape"/>
<feColorMatrix in="SourceAlpha" type="matrix" values="0 0 0 0 0 0 0 0 0 0 0 0 0 0 0 0 0 0 127 0" result="hardAlpha"/>
<feOffset dy="1.11024"/>
<feGaussianBlur stdDeviation="0.55512"/>
<feComposite in2="hardAlpha" operator="arithmetic" k2="-1" k3="1"/>
<feColorMatrix type="matrix" values="0 0 0 0 1 0 0 0 0 1 0 0 0 0 1 0 0 0 0.09 0"/>
<feBlend mode="normal" in2="shape" result="effect1_innerShadow_motion_shared"/>
</filter>
<filter id="filter9_i_motion_shared" x="97" y="56" width="17" height="65.1102" filterUnits="userSpaceOnUse" color-interpolation-filters="sRGB">
<feFlood flood-opacity="0" result="BackgroundImageFix"/>
<feBlend mode="normal" in="SourceGraphic" in2="BackgroundImageFix" result="shape"/>
<feColorMatrix in="SourceAlpha" type="matrix" values="0 0 0 0 0 0 0 0 0 0 0 0 0 0 0 0 0 0 127 0" result="hardAlpha"/>
<feOffset dy="1.11024"/>
<feGaussianBlur stdDeviation="0.55512"/>
<feComposite in2="hardAlpha" operator="arithmetic" k2="-1" k3="1"/>
<feColorMatrix type="matrix" values="0 0 0 0 1 0 0 0 0 1 0 0 0 0 1 0 0 0 0.09 0"/>
<feBlend mode="normal" in2="shape" result="effect1_innerShadow_motion_shared"/>
</filter>
<filter id="filter10_i_motion_shared" x="72" y="56" width="17" height="65.1102" filterUnits="userSpaceOnUse" color-interpolation-filters="sRGB">
<feFlood flood-opacity="0" result="BackgroundImageFix"/>
<feBlend mode="normal" in="SourceGraphic" in2="BackgroundImageFix" result="shape"/>
<feColorMatrix in="SourceAlpha" type="matrix" values="0 0 0 0 0 0 0 0 0 0 0 0 0 0 0 0 0 0 127 0" result="hardAlpha"/>
<feOffset dy="1.11024"/>
<feGaussianBlur stdDeviation="0.55512"/>
<feComposite in2="hardAlpha" operator="arithmetic" k2="-1" k3="1"/>
<feColorMatrix type="matrix" values="0 0 0 0 1 0 0 0 0 1 0 0 0 0 1 0 0 0 0.09 0"/>
<feBlend mode="normal" in2="shape" result="effect1_innerShadow_motion_shared"/>
</filter>
<filter id="filter11_i_motion_shared" x="47" y="56" width="17" height="65.1102" filterUnits="userSpaceOnUse" color-interpolation-filters="sRGB">
<feFlood flood-opacity="0" result="BackgroundImageFix"/>
<feBlend mode="normal" in="SourceGraphic" in2="BackgroundImageFix" result="shape"/>
<feColorMatrix in="SourceAlpha" type="matrix" values="0 0 0 0 0 0 0 0 0 0 0 0 0 0 0 0 0 0 127 0" result="hardAlpha"/>
<feOffset dy="1.11024"/>
<feGaussianBlur stdDeviation="0.55512"/>
<feComposite in2="hardAlpha" operator="arithmetic" k2="-1" k3="1"/>
<feColorMatrix type="matrix" values="0 0 0 0 1 0 0 0 0 1 0 0 0 0 1 0 0 0 0.09 0"/>
<feBlend mode="normal" in2="shape" result="effect1_innerShadow_motion_shared"/>
</filter>
<filter id="filter12_di_motion_shared" x="41.74" y="95.685" width="27.5199" height="34.8349" filterUnits="userSpaceOnUse" color-interpolation-filters="sRGB">
<feFlood flood-opacity="0" result="BackgroundImageFix"/>
<feColorMatrix in="SourceAlpha" type="matrix" values="0 0 0 0 0 0 0 0 0 0 0 0 0 0 0 0 0 0 127 0" result="hardAlpha"/>
<feOffset dy="5.25997"/>
<feGaussianBlur stdDeviation="2.62999"/>
<feComposite in2="hardAlpha" operator="out"/>
<feColorMatrix type="matrix" values="0 0 0 0 0.992157 0 0 0 0 0.588235 0 0 0 0 0.180392 0 0 0 0.07 0"/>
<feBlend mode="normal" in2="BackgroundImageFix" result="effect1_dropShadow_motion_shared"/>
<feBlend mode="normal" in="SourceGraphic" in2="effect1_dropShadow_motion_shared" result="shape"/>
<feColorMatrix in="SourceAlpha" type="matrix" values="0 0 0 0 0 0 0 0 0 0 0 0 0 0 0 0 0 0 127 0" result="hardAlpha"/>
<feOffset dy="-1.31499"/>
<feGaussianBlur stdDeviation="0.657495"/>
<feComposite in2="hardAlpha" operator="arithmetic" k2="-1" k3="1"/>
<feColorMatrix type="matrix" values="0 0 0 0 1 0 0 0 0 1 0 0 0 0 1 0 0 0 0.29 0"/>
<feBlend mode="normal" in2="shape" result="effect2_innerShadow_motion_shared"/>
</filter>
<radialGradient id="paint0_radial_motion_shared" cx="0" cy="0" r="1" gradientTransform="matrix(1.14717 109.82 -144.884 0.227609 92.5 45.4202)" gradientUnits="userSpaceOnUse">
<stop stop-color="white"/>
<stop offset="1" stop-color="#D3D8FF" stop-opacity="0.66"/>
</radialGradient>
<radialGradient id="paint1_radial_motion_shared" cx="0" cy="0" r="1" gradientTransform="matrix(1.14717 109.82 -144.884 0.227609 252.5 45.4202)" gradientUnits="userSpaceOnUse">
<stop stop-color="white"/>
<stop offset="1" stop-color="#D3D8FF" stop-opacity="0.66"/>
</radialGradient>
<radialGradient id="paint2_radial_motion_shared" cx="0" cy="0" r="1" gradientUnits="userSpaceOnUse" gradientTransform="translate(253 57) scale(82.0589)">
<stop stop-color="#32333B"/>
<stop offset="1" stop-color="#585966" stop-opacity="0.66"/>
</radialGradient>
<radialGradient id="paint3_radial_motion_shared" cx="0" cy="0" r="1" gradientUnits="userSpaceOnUse" gradientTransform="translate(249.5 67.5) rotate(153.072) scale(35.3306 89.3167)">
<stop offset="0.420816" stop-color="#F8E2BB"/>
<stop offset="1" stop-color="#FFB900"/>
</radialGradient>
<radialGradient id="paint4_radial_motion_shared" cx="0" cy="0" r="1" gradientUnits="userSpaceOnUse" gradientTransform="translate(249.5 67.5) rotate(153.072) scale(35.3306 89.3167)">
<stop offset="0.420816" stop-color="#F8E2BB"/>
<stop offset="1" stop-color="#FFB900"/>
</radialGradient>
<radialGradient id="paint5_radial_motion_shared" cx="0" cy="0" r="1" gradientUnits="userSpaceOnUse" gradientTransform="translate(250 85) rotate(-110.136) scale(15.9765 40.3891)">
<stop offset="0.186322" stop-color="#EAF0FF"/>
<stop offset="1" stop-color="#A4E8FE"/>
</radialGradient>
<radialGradient id="paint6_radial_motion_shared" cx="0" cy="0" r="1" gradientUnits="userSpaceOnUse" gradientTransform="translate(250 85) rotate(-110.136) scale(15.9765 40.3891)">
<stop offset="0.186322" stop-color="#EAF0FF"/>
<stop offset="1" stop-color="#A4E8FE"/>
</radialGradient>
<radialGradient id="paint7_radial_motion_shared" cx="0" cy="0" r="1" gradientUnits="userSpaceOnUse" gradientTransform="translate(225 66.5) rotate(57.5674) scale(56.8705 143.77)">
<stop offset="0.492547" stop-color="#F8E2BB"/>
<stop offset="1" stop-color="#EB8621"/>
</radialGradient>
<radialGradient id="paint8_radial_motion_shared" cx="0" cy="0" r="1" gradientUnits="userSpaceOnUse" gradientTransform="translate(225 66.5) rotate(57.5674) scale(56.8705 143.77)">
<stop offset="0.492547" stop-color="#F8E2BB"/>
<stop offset="1" stop-color="#EB8621"/>
</radialGradient>
<radialGradient id="paint9_radial_motion_shared" cx="0" cy="0" r="1" gradientUnits="userSpaceOnUse" gradientTransform="translate(260 48) rotate(57.1313) scale(38.6943 97.8203)">
<stop stop-color="#A4E8FE"/>
<stop offset="0.68473" stop-color="#0079EA"/>
</radialGradient>
<radialGradient id="paint10_radial_motion_shared" cx="0" cy="0" r="1" gradientUnits="userSpaceOnUse" gradientTransform="translate(294 96) rotate(147.131) scale(38.6943 97.8203)">
<stop stop-color="#A4E8FE"/>
<stop offset="0.68473" stop-color="#0079EA"/>
</radialGradient>
<radialGradient id="paint11_radial_motion_shared" cx="0" cy="0" r="1" gradientTransform="matrix(0.649724 85.7133 -82.0582 0.177646 177 147.767)" gradientUnits="userSpaceOnUse">
<stop stop-color="white"/>
<stop offset="1" stop-color="#D3D8FF" stop-opacity="0.66"/>
</radialGradient>
<radialGradient id="paint12_radial_motion_shared" cx="0" cy="0" r="1" gradientUnits="userSpaceOnUse" gradientTransform="translate(166.5 167.875) scale(14.2112 35.9263)">
<stop stop-color="#A4E8FE"/>
<stop offset="1" stop-color="#0079EA"/>
</radialGradient>
<radialGradient id="paint13_radial_motion_shared" cx="0" cy="0" r="1" gradientUnits="userSpaceOnUse" gradientTransform="translate(166.5 182.625) scale(4.73708 11.9755)">
<stop stop-color="#A4E8FE"/>
<stop offset="1" stop-color="#0079EA"/>
</radialGradient>
<radialGradient id="paint14_radial_motion_shared" cx="0" cy="0" r="1" gradientUnits="userSpaceOnUse" gradientTransform="translate(180.5 170.625) scale(4.73708 11.9755)">
<stop stop-color="#A4E8FE"/>
<stop offset="1" stop-color="#0079EA"/>
</radialGradient>
<radialGradient id="paint15_radial_motion_shared" cx="0" cy="0" r="1" gradientUnits="userSpaceOnUse" gradientTransform="translate(130.5 56) scale(21.7969 82.0589)">
<stop stop-color="#32333B"/>
<stop offset="1" stop-color="#585966" stop-opacity="0.66"/>
</radialGradient>
<radialGradient id="paint16_radial_motion_shared" cx="0" cy="0" r="1" gradientUnits="userSpaceOnUse" gradientTransform="translate(105.5 56) scale(21.7969 82.0589)">
<stop stop-color="#32333B"/>
<stop offset="1" stop-color="#585966" stop-opacity="0.66"/>
</radialGradient>
<radialGradient id="paint17_radial_motion_shared" cx="0" cy="0" r="1" gradientUnits="userSpaceOnUse" gradientTransform="translate(80.5 56) scale(21.7969 82.0589)">
<stop stop-color="#32333B"/>
<stop offset="1" stop-color="#585966" stop-opacity="0.66"/>
</radialGradient>
<radialGradient id="paint18_radial_motion_shared" cx="0" cy="0" r="1" gradientUnits="userSpaceOnUse" gradientTransform="translate(55.5 56) scale(21.7969 82.0589)">
<stop stop-color="#32333B"/>
<stop offset="1" stop-color="#585966" stop-opacity="0.66"/>
</radialGradient>
<radialGradient id="paint19_radial_motion_shared" cx="0" cy="0" r="1" gradientUnits="userSpaceOnUse" gradientTransform="translate(66.125 120) rotate(-90) scale(15.5647 29.0832)">
<stop stop-color="#A4E8FE"/>
<stop offset="1" stop-color="#0079EA"/>
</radialGradient>
<clipPath id="clip0_motion_shared">
<rect width="24" height="24" fill="white" transform="matrix(0 -1 1 0 165 193)"/>
</clipPath>
<clipPath id="clip1_motion_shared">
<rect width="17" height="64" fill="white" transform="translate(122 56)"/>
</clipPath>
<clipPath id="clip2_motion_shared">
<rect width="17" height="64" fill="white" transform="translate(97 56)"/>
</clipPath>
<clipPath id="clip3_motion_shared">
<rect width="17" height="64" fill="white" transform="translate(72 56)"/>
</clipPath>
<clipPath id="clip4_motion_shared">
<rect width="17" height="64" fill="white" transform="translate(47 56)"/>
</clipPath>
</defs>
</svg>
