<svg width="355" height="240" viewBox="0 0 355 240" fill="none" xmlns="http://www.w3.org/2000/svg">
<rect data-motion-id="1:4181:@root/background[0]" width="354.667" height="240" rx="16" fill="white"/>
<rect data-motion-id="1:4181:@root/background[1]" x="36" y="47" width="113" height="82" rx="12" fill="url(#paint0_radial_motion_shared)"/>
<path data-motion-id="1:4181:@root/vector-1[0]" d="M196 59C196 52.3726 201.373 47 208 47H297C303.627 47 309 52.3726 309 59V117C309 123.627 303.627 129 297 129H208C201.373 129 196 123.627 196 117V59Z" fill="url(#paint1_radial_motion_shared)"/>
<g data-motion-id="1:4181:@root" opacity="0.9" filter="url(#filter0_i_motion_shared)">
<path data-motion-id="1:4181:@root/container[0]/hugeiconsrefresh-03-stroke-rounded-1[0]/vector-stroke[0]" d="M285 88C285 105.673 270.673 120 253 120C235.327 120 221 105.673 221 88C221 70.3269 235.327 56 253 56C270.673 56 285 70.3269 285 88ZM237 88C237 96.8366 244.163 104 253 104C261.837 104 269 96.8366 269 88C269 79.1634 261.837 72 253 72C244.163 72 237 79.1634 237 88Z" fill="url(#paint2_radial_motion_shared)"/>
</g>
<mask id="mask0_motion_shared" style="mask-type:alpha" maskUnits="userSpaceOnUse" x="225" y="56" width="28" height="24">
<path data-motion-id="1:4181:@root/container[0]/hugeiconsrefresh-03-stroke-rounded-1[0]/vector-stroke[1]" d="M253 56C247.532 56 242.154 57.4014 237.381 60.0705C232.608 62.7395 228.599 66.5872 225.736 71.2463L239.368 79.6232C240.8 77.2936 242.804 75.3698 245.191 74.0352C247.577 72.7007 250.266 72 253 72V56Z" fill="url(#paint3_radial_motion_shared)"/>
</mask>
<g data-motion-id="1:4181:@root/piechart[0]" mask="url(#mask0_motion_shared)">
<g data-motion-id="1:4181:@root/piechart[0]/mask-group[0]" filter="url(#filter1_di_motion_shared)">
<path data-motion-id="1:4181:@root/container[0]/hugeiconsrefresh-03-stroke-rounded-1[0]/vector-stroke[2]" d="M225.749 71.2262C222.882 75.8832 221.257 81.1971 221.028 86.6608C220.799 92.1245 221.974 97.5557 224.441 102.436L238.721 95.2181C237.487 92.7779 236.9 90.0623 237.014 87.3304C237.128 84.5986 237.941 81.9416 239.374 79.6131L225.749 71.2262Z" fill="url(#paint4_radial_motion_shared)"/>
</g>
</g>
<mask id="mask1_motion_shared" style="mask-type:alpha" maskUnits="userSpaceOnUse" x="221" y="71" width="20" height="38">
<path d="M225.844 71.0728C222.29 76.7744 220.62 83.4499 221.073 90.1532C221.525 96.8565 224.075 103.247 228.362 108.42L240.681 98.2101C238.538 95.6237 237.262 92.4283 237.036 89.0766C236.81 85.725 237.645 82.3872 239.422 79.5364L225.844 71.0728Z" fill="url(#paint5_radial_motion_shared)"/>
</mask>
<g data-motion-id="1:4181:@root/piechart[0]/mask-group[1]" mask="url(#mask1_motion_shared)">
<g data-motion-id="1:4181:@root/piechart[0]/mask-group[2]" filter="url(#filter2_di_motion_shared)">
<path d="M228.52 108.61C232.848 113.749 238.682 117.396 245.198 119.034C251.714 120.672 258.58 120.218 264.823 117.736L258.912 102.868C255.79 104.109 252.357 104.336 249.099 103.517C245.841 102.698 242.924 100.875 240.76 98.3048L228.52 108.61Z" fill="url(#paint6_radial_motion_shared)"/>
</g>
</g>
<mask id="mask2_motion_shared" style="mask-type:alpha" maskUnits="userSpaceOnUse" x="253" y="56" width="32" height="32">
<path d="M285 88C285 83.7977 284.172 79.6365 282.564 75.7541C280.956 71.8717 278.599 68.3441 275.627 65.3726C272.656 62.4011 269.128 60.044 265.246 58.4359C261.363 56.8277 257.202 56 253 56L253 72C255.101 72 257.182 72.4139 259.123 73.2179C261.064 74.022 262.828 75.2006 264.314 76.6863C265.799 78.172 266.978 79.9359 267.782 81.8771C268.586 83.8183 269 85.8988 269 88H285Z" fill="url(#paint7_radial_motion_shared)"/>
</mask>
<g data-motion-id="1:4181:@root/piechart[0]/mask-group[3]" mask="url(#mask2_motion_shared)">
<g data-motion-id="1:4181:@root/container[0]" filter="url(#filter3_di_motion_shared)">
<path d="M285 88C285 83.7977 284.172 79.6365 282.564 75.7541C280.956 71.8717 278.599 68.3441 275.627 65.3726C272.656 62.4011 269.128 60.044 265.246 58.4359C261.363 56.8277 257.202 56 253 56L253 72C255.101 72 257.182 72.4138 259.123 73.2179C261.064 74.022 262.828 75.2006 264.314 76.6863C265.799 78.172 266.978 79.9359 267.782 81.8771C268.586 83.8183 269 85.8988 269 88L285 88Z" fill="url(#paint8_radial_motion_shared)"/>
</g>
</g>
<mask id="mask3_motion_shared" style="mask-type:alpha" maskUnits="userSpaceOnUse" x="228" y="87" width="57" height="33">
<path d="M228.194 108.216C232.368 113.337 238.025 117.041 244.387 118.819C250.75 120.597 257.507 120.362 263.731 118.147C269.955 115.931 275.341 111.844 279.149 106.445C282.957 101.046 285.001 94.6013 285 87.9947L269 87.9973C269.001 91.3006 267.979 94.5231 266.075 97.2225C264.171 99.9218 261.478 101.966 258.366 103.073C255.254 104.181 251.875 104.299 248.694 103.41C245.512 102.521 242.684 100.669 240.597 98.108L228.194 108.216Z" fill="url(#paint9_radial_motion_shared)"/>
</mask>
<g data-motion-id="1:4181:@root/container[0]/hugeiconsrefresh-03-stroke-rounded-1[0]" mask="url(#mask3_motion_shared)">
<g data-motion-id="1:4181:@root/bar-chart[0]" filter="url(#filter4_d_motion_shared)">
<path d="M284.973 86.6816C284.701 80.0912 282.4 73.7458 278.383 68.5138C274.366 63.2818 268.831 59.4188 262.535 57.4535C256.238 55.4882 249.489 55.5165 243.209 57.5347C236.929 59.5529 231.427 63.4623 227.454 68.7279L240.227 78.364C242.213 75.7312 244.965 73.7765 248.105 72.7674C251.244 71.7583 254.619 71.7441 257.767 72.7268C260.916 73.7094 263.683 75.6409 265.692 78.2569C267.7 80.8729 268.851 84.0456 268.987 87.3408L284.973 86.6816Z" fill="url(#paint10_radial_motion_shared)"/>
</g>
</g>
<g data-motion-id="1:4181:@root/bar-chart[0]/4th-column[0]" filter="url(#filter5_di_motion_shared)">
<path d="M97 121C97 121 97 121 97 121H114C114 121 114 121 114 121C114 121 114 121 114 121H97.0001C97 121 97 121 97 121Z" fill="url(#paint11_radial_motion_shared)"/>
</g>
<path d="M93 129C93 129 93 161 93 169.8C93 178.6 95.0059 181 100.021 181C105.036 181 249.463 181 254.478 181C259.493 181 262 176.2 262 169.8C262 163.4 262 129 262 129" stroke="#788EA4" stroke-dasharray="7 7"/>
<rect data-motion-id="1:4181:@root/rectangle-39[0]" x="145" y="149" width="64" height="64" rx="32" fill="white"/>
<rect data-motion-id="1:4181:@root/bar-chart[0]/4th-column[0]/background[0]" x="145" y="149" width="64" height="64" rx="32" fill="url(#paint12_radial_motion_shared)"/>
<g data-motion-id="1:4181:@root/bar-chart[0]/3rd-column[0]" clip-path="url(#clip0_motion_shared)">
<g data-motion-id="1:4181:@root/bar-chart[0]/2nd-column[0]" filter="url(#filter6_di_motion_shared)">
<path d="M177 191.5C176.607 191.5 176.218 191.478 175.835 191.436C175.012 191.344 174.418 190.604 174.509 189.78C174.6 188.957 175.342 188.363 176.165 188.454C176.439 188.484 176.717 188.5 177 188.5C181.142 188.5 184.5 185.142 184.5 181C184.5 178.645 183.416 176.543 181.714 175.166C181.07 174.645 180.97 173.701 181.491 173.057C182.012 172.413 182.957 172.313 183.601 172.834C185.976 174.757 187.5 177.701 187.5 181C187.5 186.799 182.799 191.5 177 191.5ZM177 173.5C172.858 173.5 169.5 176.858 169.5 181C169.5 183.355 170.584 185.457 172.286 186.834C172.93 187.355 173.03 188.299 172.509 188.943C171.988 189.587 171.043 189.687 170.399 189.166C168.024 187.244 166.5 184.299 166.5 181C166.5 175.201 171.201 170.5 177 170.5C177.393 170.5 177.782 170.522 178.165 170.564C178.988 170.656 179.582 171.396 179.491 172.22C179.4 173.043 178.658 173.637 177.835 173.546C177.561 173.516 177.283 173.5 177 173.5Z" fill="url(#paint13_radial_motion_shared)"/>
</g>
<g data-motion-id="1:4181:@root/bar-chart[0]/1st-column[0]" filter="url(#filter7_di_motion_shared)">
<path d="M169 190.5H168C167.172 190.5 166.5 189.828 166.5 189C166.5 188.172 167.172 187.5 168 187.5H169C169.75 187.5 170.161 187.496 170.446 187.458C170.452 187.457 170.457 187.453 170.458 187.447C170.458 187.447 170.458 187.447 170.458 187.446C170.496 187.161 170.5 186.749 170.5 186V185C170.5 184.172 171.172 183.5 172 183.5C172.828 183.5 173.5 184.172 173.5 185V186C173.5 186.665 173.503 187.314 173.432 187.846C173.354 188.42 173.166 189.076 172.621 189.621C172.076 190.166 171.421 190.354 170.846 190.432C170.314 190.503 169.665 190.5 169 190.5Z" fill="url(#paint14_radial_motion_shared)"/>
</g>
<g filter="url(#filter8_di_motion_shared)">
<path d="M186 174.5H185C184.251 174.5 183.839 174.504 183.554 174.542C183.553 174.542 183.553 174.542 183.553 174.542C183.547 174.543 183.543 174.548 183.542 174.554C183.504 174.839 183.5 175.251 183.5 176V177C183.5 177.828 182.828 178.5 182 178.5C181.172 178.5 180.5 177.828 180.5 177V176C180.5 175.335 180.497 174.686 180.568 174.154C180.646 173.58 180.834 172.924 181.379 172.379C181.924 171.834 182.58 171.646 183.154 171.568C183.686 171.497 184.335 171.5 185 171.5H186C186.828 171.5 187.5 172.172 187.5 173C187.5 173.828 186.828 174.5 186 174.5Z" fill="url(#paint15_radial_motion_shared)"/>
</g>
</g>
<g clip-path="url(#clip1_motion_shared)">
<g opacity="0.9" filter="url(#filter9_i_motion_shared)">
<rect data-motion-id="1:4181:@root/bar-chart[0]/4th-column[0]/active[0]" x="122" y="56" width="17" height="64" rx="6" fill="url(#paint16_radial_motion_shared)" fill-opacity="0.4"/>
</g>
</g>
<g clip-path="url(#clip2_motion_shared)">
<g opacity="0.9" filter="url(#filter10_i_motion_shared)">
<rect data-motion-id="1:4181:@root/bar-chart[0]/3rd-column[0]/background[0]" x="97" y="56" width="17" height="64" rx="6" fill="url(#paint17_radial_motion_shared)" fill-opacity="0.4"/>
</g>
</g>
<g clip-path="url(#clip3_motion_shared)">
<g opacity="0.9" filter="url(#filter11_i_motion_shared)">
<rect data-motion-id="1:4181:@root/bar-chart[0]/3rd-column[0]/active[0]" x="72" y="56" width="17" height="64" rx="6" fill="url(#paint18_radial_motion_shared)"/>
</g>
<g filter="url(#filter12_di_motion_shared)">
<path d="M72 116C72 118.209 73.7909 120 76 120H85C87.2091 120 89 118.209 89 116V80C89 76.6863 86.3137 74 83 74H78C74.6863 74 72 76.6863 72 80V116Z" fill="url(#paint19_radial_motion_shared)"/>
</g>
</g>
<g clip-path="url(#clip4_motion_shared)">
<g opacity="0.9" filter="url(#filter13_i_motion_shared)">
<rect data-motion-id="1:4181:@root/bar-chart[0]/2nd-column[0]/background[0]" x="47" y="56" width="17" height="64" rx="6" fill="url(#paint20_radial_motion_shared)" fill-opacity="0.4"/>
</g>
</g>
<defs>
<filter id="filter0_i_motion_shared" x="221" y="56" width="64" height="65.1102" filterUnits="userSpaceOnUse" color-interpolation-filters="sRGB">
<feFlood flood-opacity="0" result="BackgroundImageFix"/>
<feBlend mode="normal" in="SourceGraphic" in2="BackgroundImageFix" result="shape"/>
<feColorMatrix in="SourceAlpha" type="matrix" values="0 0 0 0 0 0 0 0 0 0 0 0 0 0 0 0 0 0 127 0" result="hardAlpha"/>
<feOffset dy="1.11024"/>
<feGaussianBlur stdDeviation="0.55512"/>
<feComposite in2="hardAlpha" operator="arithmetic" k2="-1" k3="1"/>
<feColorMatrix type="matrix" values="0 0 0 0 1 0 0 0 0 1 0 0 0 0 1 0 0 0 0.09 0"/>
<feBlend mode="normal" in2="shape" result="effect1_innerShadow_motion_shared"/>
</filter>
<filter id="filter1_di_motion_shared" x="215.74" y="71.2263" width="28.8942" height="41.7298" filterUnits="userSpaceOnUse" color-interpolation-filters="sRGB">
<feFlood flood-opacity="0" result="BackgroundImageFix"/>
<feColorMatrix in="SourceAlpha" type="matrix" values="0 0 0 0 0 0 0 0 0 0 0 0 0 0 0 0 0 0 127 0" result="hardAlpha"/>
<feOffset dy="5.25997"/>
<feGaussianBlur stdDeviation="2.62999"/>
<feComposite in2="hardAlpha" operator="out"/>
<feColorMatrix type="matrix" values="0 0 0 0 0.992157 0 0 0 0 0.588235 0 0 0 0 0.180392 0 0 0 0.07 0"/>
<feBlend mode="normal" in2="BackgroundImageFix" result="effect1_dropShadow_motion_shared"/>
<feBlend mode="normal" in="SourceGraphic" in2="effect1_dropShadow_motion_shared" result="shape"/>
<feColorMatrix in="SourceAlpha" type="matrix" values="0 0 0 0 0 0 0 0 0 0 0 0 0 0 0 0 0 0 127 0" result="hardAlpha"/>
<feOffset dx="2"/>
<feGaussianBlur stdDeviation="0.65"/>
<feComposite in2="hardAlpha" operator="arithmetic" k2="-1" k3="1"/>
<feColorMatrix type="matrix" values="0 0 0 0 1 0 0 0 0 1 0 0 0 0 1 0 0 0 0.29 0"/>
<feBlend mode="normal" in2="shape" result="effect2_innerShadow_motion_shared"/>
</filter>
<filter id="filter2_di_motion_shared" x="223.261" y="98.3047" width="46.8227" height="32.2152" filterUnits="userSpaceOnUse" color-interpolation-filters="sRGB">
<feFlood flood-opacity="0" result="BackgroundImageFix"/>
<feColorMatrix in="SourceAlpha" type="matrix" values="0 0 0 0 0 0 0 0 0 0 0 0 0 0 0 0 0 0 127 0" result="hardAlpha"/>
<feOffset dy="5.25997"/>
<feGaussianBlur stdDeviation="2.62999"/>
<feComposite in2="hardAlpha" operator="out"/>
<feColorMatrix type="matrix" values="0 0 0 0 0.992157 0 0 0 0 0.588235 0 0 0 0 0.180392 0 0 0 0.07 0"/>
<feBlend mode="normal" in2="BackgroundImageFix" result="effect1_dropShadow_motion_shared"/>
<feBlend mode="normal" in="SourceGraphic" in2="effect1_dropShadow_motion_shared" result="shape"/>
<feColorMatrix in="SourceAlpha" type="matrix" values="0 0 0 0 0 0 0 0 0 0 0 0 0 0 0 0 0 0 127 0" result="hardAlpha"/>
<feOffset dx="2"/>
<feGaussianBlur stdDeviation="0.657495"/>
<feComposite in2="hardAlpha" operator="arithmetic" k2="-1" k3="1"/>
<feColorMatrix type="matrix" values="0 0 0 0 1 0 0 0 0 1 0 0 0 0 1 0 0 0 0.29 0"/>
<feBlend mode="normal" in2="shape" result="effect2_innerShadow_motion_shared"/>
</filter>
<filter id="filter3_di_motion_shared" x="247.74" y="54.685" width="42.5199" height="43.8349" filterUnits="userSpaceOnUse" color-interpolation-filters="sRGB">
<feFlood flood-opacity="0" result="BackgroundImageFix"/>
<feColorMatrix in="SourceAlpha" type="matrix" values="0 0 0 0 0 0 0 0 0 0 0 0 0 0 0 0 0 0 127 0" result="hardAlpha"/>
<feOffset dy="5.25997"/>
<feGaussianBlur stdDeviation="2.62999"/>
<feComposite in2="hardAlpha" operator="out"/>
<feColorMatrix type="matrix" values="0 0 0 0 0.992157 0 0 0 0 0.588235 0 0 0 0 0.180392 0 0 0 0.07 0"/>
<feBlend mode="normal" in2="BackgroundImageFix" result="effect1_dropShadow_motion_shared"/>
<feBlend mode="normal" in="SourceGraphic" in2="effect1_dropShadow_motion_shared" result="shape"/>
<feColorMatrix in="SourceAlpha" type="matrix" values="0 0 0 0 0 0 0 0 0 0 0 0 0 0 0 0 0 0 127 0" result="hardAlpha"/>
<feOffset dy="-1.31499"/>
<feGaussianBlur stdDeviation="0.657495"/>
<feComposite in2="hardAlpha" operator="arithmetic" k2="-1" k3="1"/>
<feColorMatrix type="matrix" values="0 0 0 0 1 0 0 0 0 1 0 0 0 0 1 0 0 0 0.29 0"/>
<feBlend mode="normal" in2="shape" result="effect2_innerShadow_motion_shared"/>
</filter>
<filter id="filter4_d_motion_shared" x="222.194" y="56" width="68.0385" height="41.8608" filterUnits="userSpaceOnUse" color-interpolation-filters="sRGB">
<feFlood flood-opacity="0" result="BackgroundImageFix"/>
<feColorMatrix in="SourceAlpha" type="matrix" values="0 0 0 0 0 0 0 0 0 0 0 0 0 0 0 0 0 0 127 0" result="hardAlpha"/>
<feOffset dy="5.25997"/>
<feGaussianBlur stdDeviation="2.62999"/>
<feComposite in2="hardAlpha" operator="out"/>
<feColorMatrix type="matrix" values="0 0 0 0 0.992157 0 0 0 0 0.588235 0 0 0 0 0.180392 0 0 0 0.07 0"/>
<feBlend mode="normal" in2="BackgroundImageFix" result="effect1_dropShadow_motion_shared"/>
<feBlend mode="normal" in="SourceGraphic" in2="effect1_dropShadow_motion_shared" result="shape"/>
</filter>
<filter id="filter5_di_motion_shared" x="91.74" y="119.685" width="27.5199" height="11.8351" filterUnits="userSpaceOnUse" color-interpolation-filters="sRGB">
<feFlood flood-opacity="0" result="BackgroundImageFix"/>
<feColorMatrix in="SourceAlpha" type="matrix" values="0 0 0 0 0 0 0 0 0 0 0 0 0 0 0 0 0 0 127 0" result="hardAlpha"/>
<feOffset dy="5.25997"/>
<feGaussianBlur stdDeviation="2.62999"/>
<feComposite in2="hardAlpha" operator="out"/>
<feColorMatrix type="matrix" values="0 0 0 0 0.992157 0 0 0 0 0.588235 0 0 0 0 0.180392 0 0 0 0.07 0"/>
<feBlend mode="normal" in2="BackgroundImageFix" result="effect1_dropShadow_motion_shared"/>
<feBlend mode="normal" in="SourceGraphic" in2="effect1_dropShadow_motion_shared" result="shape"/>
<feColorMatrix in="SourceAlpha" type="matrix" values="0 0 0 0 0 0 0 0 0 0 0 0 0 0 0 0 0 0 127 0" result="hardAlpha"/>
<feOffset dy="-1.31499"/>
<feGaussianBlur stdDeviation="0.657495"/>
<feComposite in2="hardAlpha" operator="arithmetic" k2="-1" k3="1"/>
<feColorMatrix type="matrix" values="0 0 0 0 1 0 0 0 0 1 0 0 0 0 1 0 0 0 0.29 0"/>
<feBlend mode="normal" in2="shape" result="effect2_innerShadow_motion_shared"/>
</filter>
<filter id="filter6_di_motion_shared" x="161.24" y="169.185" width="31.5199" height="32.8349" filterUnits="userSpaceOnUse" color-interpolation-filters="sRGB">
<feFlood flood-opacity="0" result="BackgroundImageFix"/>
<feColorMatrix in="SourceAlpha" type="matrix" values="0 0 0 0 0 0 0 0 0 0 0 0 0 0 0 0 0 0 127 0" result="hardAlpha"/>
<feOffset dy="5.25997"/>
<feGaussianBlur stdDeviation="2.62999"/>
<feComposite in2="hardAlpha" operator="out"/>
<feColorMatrix type="matrix" values="0 0 0 0 0.992157 0 0 0 0 0.588235 0 0 0 0 0.180392 0 0 0 0.07 0"/>
<feBlend mode="normal" in2="BackgroundImageFix" result="effect1_dropShadow_motion_shared"/>
<feBlend mode="normal" in="SourceGraphic" in2="effect1_dropShadow_motion_shared" result="shape"/>
<feColorMatrix in="SourceAlpha" type="matrix" values="0 0 0 0 0 0 0 0 0 0 0 0 0 0 0 0 0 0 127 0" result="hardAlpha"/>
<feOffset dy="-1.31499"/>
<feGaussianBlur stdDeviation="0.657495"/>
<feComposite in2="hardAlpha" operator="arithmetic" k2="-1" k3="1"/>
<feColorMatrix type="matrix" values="0 0 0 0 1 0 0 0 0 1 0 0 0 0 1 0 0 0 0.29 0"/>
<feBlend mode="normal" in2="shape" result="effect2_innerShadow_motion_shared"/>
</filter>
<filter id="filter7_di_motion_shared" x="161.24" y="182.185" width="17.5199" height="18.8349" filterUnits="userSpaceOnUse" color-interpolation-filters="sRGB">
<feFlood flood-opacity="0" result="BackgroundImageFix"/>
<feColorMatrix in="SourceAlpha" type="matrix" values="0 0 0 0 0 0 0 0 0 0 0 0 0 0 0 0 0 0 127 0" result="hardAlpha"/>
<feOffset dy="5.25997"/>
<feGaussianBlur stdDeviation="2.62999"/>
<feComposite in2="hardAlpha" operator="out"/>
<feColorMatrix type="matrix" values="0 0 0 0 0.992157 0 0 0 0 0.588235 0 0 0 0 0.180392 0 0 0 0.07 0"/>
<feBlend mode="normal" in2="BackgroundImageFix" result="effect1_dropShadow_motion_shared"/>
<feBlend mode="normal" in="SourceGraphic" in2="effect1_dropShadow_motion_shared" result="shape"/>
<feColorMatrix in="SourceAlpha" type="matrix" values="0 0 0 0 0 0 0 0 0 0 0 0 0 0 0 0 0 0 127 0" result="hardAlpha"/>
<feOffset dy="-1.31499"/>
<feGaussianBlur stdDeviation="0.657495"/>
<feComposite in2="hardAlpha" operator="arithmetic" k2="-1" k3="1"/>
<feColorMatrix type="matrix" values="0 0 0 0 1 0 0 0 0 1 0 0 0 0 1 0 0 0 0.29 0"/>
<feBlend mode="normal" in2="shape" result="effect2_innerShadow_motion_shared"/>
</filter>
<filter id="filter8_di_motion_shared" x="175.24" y="170.185" width="17.5199" height="18.8349" filterUnits="userSpaceOnUse" color-interpolation-filters="sRGB">
<feFlood flood-opacity="0" result="BackgroundImageFix"/>
<feColorMatrix in="SourceAlpha" type="matrix" values="0 0 0 0 0 0 0 0 0 0 0 0 0 0 0 0 0 0 127 0" result="hardAlpha"/>
<feOffset dy="5.25997"/>
<feGaussianBlur stdDeviation="2.62999"/>
<feComposite in2="hardAlpha" operator="out"/>
<feColorMatrix type="matrix" values="0 0 0 0 0.992157 0 0 0 0 0.588235 0 0 0 0 0.180392 0 0 0 0.07 0"/>
<feBlend mode="normal" in2="BackgroundImageFix" result="effect1_dropShadow_motion_shared"/>
<feBlend mode="normal" in="SourceGraphic" in2="effect1_dropShadow_motion_shared" result="shape"/>
<feColorMatrix in="SourceAlpha" type="matrix" values="0 0 0 0 0 0 0 0 0 0 0 0 0 0 0 0 0 0 127 0" result="hardAlpha"/>
<feOffset dy="-1.31499"/>
<feGaussianBlur stdDeviation="0.657495"/>
<feComposite in2="hardAlpha" operator="arithmetic" k2="-1" k3="1"/>
<feColorMatrix type="matrix" values="0 0 0 0 1 0 0 0 0 1 0 0 0 0 1 0 0 0 0.29 0"/>
<feBlend mode="normal" in2="shape" result="effect2_innerShadow_motion_shared"/>
</filter>
<filter id="filter9_i_motion_shared" x="122" y="56" width="17" height="65.1102" filterUnits="userSpaceOnUse" color-interpolation-filters="sRGB">
<feFlood flood-opacity="0" result="BackgroundImageFix"/>
<feBlend mode="normal" in="SourceGraphic" in2="BackgroundImageFix" result="shape"/>
<feColorMatrix in="SourceAlpha" type="matrix" values="0 0 0 0 0 0 0 0 0 0 0 0 0 0 0 0 0 0 127 0" result="hardAlpha"/>
<feOffset dy="1.11024"/>
<feGaussianBlur stdDeviation="0.55512"/>
<feComposite in2="hardAlpha" operator="arithmetic" k2="-1" k3="1"/>
<feColorMatrix type="matrix" values="0 0 0 0 1 0 0 0 0 1 0 0 0 0 1 0 0 0 0.09 0"/>
<feBlend mode="normal" in2="shape" result="effect1_innerShadow_motion_shared"/>
</filter>
<filter id="filter10_i_motion_shared" x="97" y="56" width="17" height="65.1102" filterUnits="userSpaceOnUse" color-interpolation-filters="sRGB">
<feFlood flood-opacity="0" result="BackgroundImageFix"/>
<feBlend mode="normal" in="SourceGraphic" in2="BackgroundImageFix" result="shape"/>
<feColorMatrix in="SourceAlpha" type="matrix" values="0 0 0 0 0 0 0 0 0 0 0 0 0 0 0 0 0 0 127 0" result="hardAlpha"/>
<feOffset dy="1.11024"/>
<feGaussianBlur stdDeviation="0.55512"/>
<feComposite in2="hardAlpha" operator="arithmetic" k2="-1" k3="1"/>
<feColorMatrix type="matrix" values="0 0 0 0 1 0 0 0 0 1 0 0 0 0 1 0 0 0 0.09 0"/>
<feBlend mode="normal" in2="shape" result="effect1_innerShadow_motion_shared"/>
</filter>
<filter id="filter11_i_motion_shared" x="72" y="56" width="17" height="65.1102" filterUnits="userSpaceOnUse" color-interpolation-filters="sRGB">
<feFlood flood-opacity="0" result="BackgroundImageFix"/>
<feBlend mode="normal" in="SourceGraphic" in2="BackgroundImageFix" result="shape"/>
<feColorMatrix in="SourceAlpha" type="matrix" values="0 0 0 0 0 0 0 0 0 0 0 0 0 0 0 0 0 0 127 0" result="hardAlpha"/>
<feOffset dy="1.11024"/>
<feGaussianBlur stdDeviation="0.55512"/>
<feComposite in2="hardAlpha" operator="arithmetic" k2="-1" k3="1"/>
<feColorMatrix type="matrix" values="0 0 0 0 1 0 0 0 0 1 0 0 0 0 1 0 0 0 0.09 0"/>
<feBlend mode="normal" in2="shape" result="effect1_innerShadow_motion_shared"/>
</filter>
<filter id="filter12_di_motion_shared" x="66.74" y="72.685" width="27.5199" height="57.8349" filterUnits="userSpaceOnUse" color-interpolation-filters="sRGB">
<feFlood flood-opacity="0" result="BackgroundImageFix"/>
<feColorMatrix in="SourceAlpha" type="matrix" values="0 0 0 0 0 0 0 0 0 0 0 0 0 0 0 0 0 0 127 0" result="hardAlpha"/>
<feOffset dy="5.25997"/>
<feGaussianBlur stdDeviation="2.62999"/>
<feComposite in2="hardAlpha" operator="out"/>
<feColorMatrix type="matrix" values="0 0 0 0 0.992157 0 0 0 0 0.588235 0 0 0 0 0.180392 0 0 0 0.07 0"/>
<feBlend mode="normal" in2="BackgroundImageFix" result="effect1_dropShadow_motion_shared"/>
<feBlend mode="normal" in="SourceGraphic" in2="effect1_dropShadow_motion_shared" result="shape"/>
<feColorMatrix in="SourceAlpha" type="matrix" values="0 0 0 0 0 0 0 0 0 0 0 0 0 0 0 0 0 0 127 0" result="hardAlpha"/>
<feOffset dy="-1.31499"/>
<feGaussianBlur stdDeviation="0.657495"/>
<feComposite in2="hardAlpha" operator="arithmetic" k2="-1" k3="1"/>
<feColorMatrix type="matrix" values="0 0 0 0 1 0 0 0 0 1 0 0 0 0 1 0 0 0 0.29 0"/>
<feBlend mode="normal" in2="shape" result="effect2_innerShadow_motion_shared"/>
</filter>
<filter id="filter13_i_motion_shared" x="47" y="56" width="17" height="65.1102" filterUnits="userSpaceOnUse" color-interpolation-filters="sRGB">
<feFlood flood-opacity="0" result="BackgroundImageFix"/>
<feBlend mode="normal" in="SourceGraphic" in2="BackgroundImageFix" result="shape"/>
<feColorMatrix in="SourceAlpha" type="matrix" values="0 0 0 0 0 0 0 0 0 0 0 0 0 0 0 0 0 0 127 0" result="hardAlpha"/>
<feOffset dy="1.11024"/>
<feGaussianBlur stdDeviation="0.55512"/>
<feComposite in2="hardAlpha" operator="arithmetic" k2="-1" k3="1"/>
<feColorMatrix type="matrix" values="0 0 0 0 1 0 0 0 0 1 0 0 0 0 1 0 0 0 0.09 0"/>
<feBlend mode="normal" in2="shape" result="effect1_innerShadow_motion_shared"/>
</filter>
<radialGradient id="paint0_radial_motion_shared" cx="0" cy="0" r="1" gradientTransform="matrix(1.14717 109.82 -144.884 0.227609 92.5 45.4202)" gradientUnits="userSpaceOnUse">
<stop stop-color="white"/>
<stop offset="1" stop-color="#D3D8FF" stop-opacity="0.66"/>
</radialGradient>
<radialGradient id="paint1_radial_motion_shared" cx="0" cy="0" r="1" gradientTransform="matrix(1.14717 109.82 -144.884 0.227609 252.5 45.4202)" gradientUnits="userSpaceOnUse">
<stop stop-color="white"/>
<stop offset="1" stop-color="#D3D8FF" stop-opacity="0.66"/>
</radialGradient>
<radialGradient id="paint2_radial_motion_shared" cx="0" cy="0" r="1" gradientUnits="userSpaceOnUse" gradientTransform="translate(253 56) scale(82.0589)">
<stop stop-color="#32333B"/>
<stop offset="1" stop-color="#585966" stop-opacity="0.66"/>
</radialGradient>
<radialGradient id="paint3_radial_motion_shared" cx="0" cy="0" r="1" gradientUnits="userSpaceOnUse" gradientTransform="translate(249.5 66.5) rotate(153.072) scale(35.3306 89.3167)">
<stop offset="0.420816" stop-color="#F8E2BB"/>
<stop offset="1" stop-color="#FFB900"/>
</radialGradient>
<radialGradient id="paint4_radial_motion_shared" cx="0" cy="0" r="1" gradientUnits="userSpaceOnUse" gradientTransform="translate(249.5 66.5) rotate(153.072) scale(35.3306 89.3167)">
<stop offset="0.420816" stop-color="#F8E2BB"/>
<stop offset="1" stop-color="#FFB900"/>
</radialGradient>
<radialGradient id="paint5_radial_motion_shared" cx="0" cy="0" r="1" gradientUnits="userSpaceOnUse" gradientTransform="translate(250 84) rotate(-110.136) scale(15.9765 40.3891)">
<stop offset="0.186322" stop-color="#EAF0FF"/>
<stop offset="1" stop-color="#A4E8FE"/>
</radialGradient>
<radialGradient id="paint6_radial_motion_shared" cx="0" cy="0" r="1" gradientUnits="userSpaceOnUse" gradientTransform="translate(250 84) rotate(-110.136) scale(15.9765 40.3891)">
<stop offset="0.186322" stop-color="#EAF0FF"/>
<stop offset="1" stop-color="#A4E8FE"/>
</radialGradient>
<radialGradient id="paint7_radial_motion_shared" cx="0" cy="0" r="1" gradientUnits="userSpaceOnUse" gradientTransform="translate(260 47) rotate(57.1313) scale(38.6943 97.8203)">
<stop stop-color="#A4E8FE"/>
<stop offset="0.68473" stop-color="#0079EA"/>
</radialGradient>
<radialGradient id="paint8_radial_motion_shared" cx="0" cy="0" r="1" gradientUnits="userSpaceOnUse" gradientTransform="translate(294 95) rotate(147.131) scale(38.6943 97.8203)">
<stop stop-color="#A4E8FE"/>
<stop offset="0.68473" stop-color="#0079EA"/>
</radialGradient>
<radialGradient id="paint9_radial_motion_shared" cx="0" cy="0" r="1" gradientUnits="userSpaceOnUse" gradientTransform="translate(225 65.5) rotate(57.5674) scale(56.8705 143.77)">
<stop offset="0.492547" stop-color="#F8E2BB"/>
<stop offset="1" stop-color="#EB8621"/>
</radialGradient>
<radialGradient id="paint10_radial_motion_shared" cx="0" cy="0" r="1" gradientUnits="userSpaceOnUse" gradientTransform="translate(288.918 87.5957) rotate(-161.862) scale(56.8705 143.77)">
<stop offset="0.492547" stop-color="#F8E2BB"/>
<stop offset="1" stop-color="#EB8621"/>
</radialGradient>
<radialGradient id="paint11_radial_motion_shared" cx="0" cy="0" r="1" gradientUnits="userSpaceOnUse" gradientTransform="translate(116.125 121) rotate(90) scale(6.76724e-05 29.0832)">
<stop stop-color="#F8E2BB"/>
<stop offset="1" stop-color="#FFB900"/>
</radialGradient>
<radialGradient id="paint12_radial_motion_shared" cx="0" cy="0" r="1" gradientTransform="matrix(0.649724 85.7133 -82.0582 0.177646 177 147.767)" gradientUnits="userSpaceOnUse">
<stop stop-color="white"/>
<stop offset="1" stop-color="#D3D8FF" stop-opacity="0.66"/>
</radialGradient>
<radialGradient id="paint13_radial_motion_shared" cx="0" cy="0" r="1" gradientUnits="userSpaceOnUse" gradientTransform="translate(166.5 167.875) scale(14.2112 35.9263)">
<stop stop-color="#A4E8FE"/>
<stop offset="1" stop-color="#0079EA"/>
</radialGradient>
<radialGradient id="paint14_radial_motion_shared" cx="0" cy="0" r="1" gradientUnits="userSpaceOnUse" gradientTransform="translate(166.5 182.625) scale(4.73708 11.9755)">
<stop stop-color="#A4E8FE"/>
<stop offset="1" stop-color="#0079EA"/>
</radialGradient>
<radialGradient id="paint15_radial_motion_shared" cx="0" cy="0" r="1" gradientUnits="userSpaceOnUse" gradientTransform="translate(180.5 170.625) scale(4.73708 11.9755)">
<stop stop-color="#A4E8FE"/>
<stop offset="1" stop-color="#0079EA"/>
</radialGradient>
<radialGradient id="paint16_radial_motion_shared" cx="0" cy="0" r="1" gradientUnits="userSpaceOnUse" gradientTransform="translate(130.5 56) scale(21.7969 82.0589)">
<stop stop-color="#32333B"/>
<stop offset="1" stop-color="#585966" stop-opacity="0.66"/>
</radialGradient>
<radialGradient id="paint17_radial_motion_shared" cx="0" cy="0" r="1" gradientUnits="userSpaceOnUse" gradientTransform="translate(105.5 56) scale(21.7969 82.0589)">
<stop stop-color="#32333B"/>
<stop offset="1" stop-color="#585966" stop-opacity="0.66"/>
</radialGradient>
<radialGradient id="paint18_radial_motion_shared" cx="0" cy="0" r="1" gradientUnits="userSpaceOnUse" gradientTransform="translate(80.5 56) scale(21.7969 82.0589)">
<stop stop-color="#32333B"/>
<stop offset="1" stop-color="#585966" stop-opacity="0.66"/>
</radialGradient>
<radialGradient id="paint19_radial_motion_shared" cx="0" cy="0" r="1" gradientUnits="userSpaceOnUse" gradientTransform="translate(91.125 120) rotate(-90) scale(31.1293 29.0832)">
<stop stop-color="#A4E8FE"/>
<stop offset="1" stop-color="#0079EA"/>
</radialGradient>
<radialGradient id="paint20_radial_motion_shared" cx="0" cy="0" r="1" gradientUnits="userSpaceOnUse" gradientTransform="translate(55.5 56) scale(21.7969 82.0589)">
<stop stop-color="#32333B"/>
<stop offset="1" stop-color="#585966" stop-opacity="0.66"/>
</radialGradient>
<clipPath id="clip0_motion_shared">
<rect width="24" height="24" fill="white" transform="matrix(0 -1 1 0 165 193)"/>
</clipPath>
<clipPath id="clip1_motion_shared">
<rect width="17" height="64" fill="white" transform="translate(122 56)"/>
</clipPath>
<clipPath id="clip2_motion_shared">
<rect width="17" height="64" fill="white" transform="translate(97 56)"/>
</clipPath>
<clipPath id="clip3_motion_shared">
<rect width="17" height="64" fill="white" transform="translate(72 56)"/>
</clipPath>
<clipPath id="clip4_motion_shared">
<rect width="17" height="64" fill="white" transform="translate(47 56)"/>
</clipPath>
</defs>
</svg>
