<svg viewBox="0 0 355 240" xmlns="http://www.w3.org/2000/svg"><style>:root{--d:12s}.b,.a,.s{animation-duration:var(--run-d,var(--d));animation-iteration-count:infinite;animation-timing-function:cubic-bezier(.4,0,.2,1)}.b{fill:#159df2;transform-box:fill-box;transform-origin:center bottom}.b0{animation-name:b0}.b1{animation-name:b1}.b2{animation-name:b2}.b3{animation-name:b3}.a{fill:none;stroke-width:16;transform:rotate(-90deg);transform-origin:253px 89px}.a0{stroke:#159df2;animation-name:a0}.a1{stroke:#ef9a3b;stroke-dashoffset:-38;animation-name:a1}.a2{stroke:#f5d58e;stroke-dashoffset:-73;animation-name:a2}.a3{stroke:#bcecff;stroke-dashoffset:-105;animation-name:a3}.a4{stroke:#ffc62e;stroke-dashoffset:-130;animation-name:a4}.s{transform-origin:177px 181px;animation-name:s}@keyframes b0{0%,12%{opacity:1;transform:scaleY(.42)}18%,100%{opacity:0}}@keyframes b1{0%,12%{opacity:0}18%,43%{opacity:1;transform:scaleY(.72)}50%,100%{opacity:0}}@keyframes b2{0%,43%{opacity:0}50%,68%{opacity:1;transform:scaleY(.25)}75%,100%{opacity:0}}@keyframes b3{0%,68%{opacity:0}75%,94%{opacity:1;transform:scaleY(.31)}100%{opacity:0}}@keyframes a0{0%,6%{opacity:0;stroke-dasharray:0 151}13%,94%{opacity:1;stroke-dasharray:38 113}100%{opacity:0}}@keyframes a1{0%,31%{stroke-dasharray:5 146}38%,94%{stroke-dasharray:35 116}100%{stroke-dasharray:5 146}}@keyframes a2{0%,31%{opacity:0}38%,94%{opacity:1;stroke-dasharray:32 119}100%{opacity:0}}@keyframes a3{0%,56%{opacity:0}63%,94%{opacity:1;stroke-dasharray:26 125}100%{opacity:0}}@keyframes a4{0%,81%{opacity:0}88%,94%{opacity:1;stroke-dasharray:20 131}100%{opacity:0}}@keyframes s{to{transform:rotate(720deg)}}</style><rect width="355" height="240" rx="16" fill="#fff"/><rect x="36" y="47" width="113" height="82" rx="12" fill="#eef0ff"/><rect x="196" y="47" width="113" height="82" rx="12" fill="#eef0ff"/><g fill="#747784" opacity=".35"><rect x="47" y="56" width="17" height="64" rx="6"/><rect x="72" y="56" width="17" height="64" rx="6"/><rect x="97" y="56" width="17" height="64" rx="6"/><rect x="122" y="56" width="17" height="64" rx="6"/></g><rect class="b b0" x="47" y="56" width="17" height="64" rx="6"/><rect class="b b1" x="72" y="56" width="17" height="64" rx="6"/><rect class="b b2" x="97" y="56" width="17" height="64" rx="6"/><rect class="b b3" x="122" y="56" width="17" height="64" rx="6"/><circle cx="253" cy="89" r="24" fill="none" stroke="#50525e" stroke-width="16"/><circle class="a a0" cx="253" cy="89" r="24"/><circle class="a a1" cx="253" cy="89" r="24"/><circle class="a a2" cx="253" cy="89" r="24"/><circle class="a a3" cx="253" cy="89" r="24"/><circle class="a a4" cx="253" cy="89" r="24"/><path d="M93 129v41c0 8 3 11 8 11h153c5 0 8-4 8-11v-41" fill="none" stroke="#788ea4" stroke-dasharray="7 7"/><circle cx="177" cy="181" r="32" fill="#eef0ff"/><path class="s" d="M166 181a11 11 0 0 1 19-7l2 2m0-6v6h-6m7 5a11 11 0 0 1-19 7l-2-2m0 6v-6h6" fill="none" stroke="#159df2" stroke-width="4" stroke-linecap="round" stroke-linejoin="round"/></svg>